<?xml version="1.0" encoding="utf-8"?>
<!-- Generator: Adobe Illustrator 27.0.0, SVG Export Plug-In . SVG Version: 6.00 Build 0)  -->
<svg version="1.1" id="Layer_1" xmlns="http://www.w3.org/2000/svg" xmlns:xlink="http://www.w3.org/1999/xlink" x="0px" y="0px"
	 viewBox="0 0 612 537.4" style="enable-background:new 0 0 612 537.4;" xml:space="preserve">
<style type="text/css">
	.st0{fill:#223E6A;}
</style>
<g>
	<path class="st0" d="M515.5,226.2c-1.5,0-2.7,0-4,0c-13.5,0-27,0-40.5,0c-1.1,0-2.4,0-3.3,0.5c-5.4,3.2-7.3,10.6-4.3,16.1
		c0.9,1.7,2,3.4,3.2,4.9c20.1,24.3,40.2,48.5,60.4,72.7c1.7,2,4.2,3.8,6.6,4.6c6,2.2,10.6-0.6,14.5-5.2c19.9-23.9,39.8-47.9,60-71.6
		c5.4-6.3,4.4-13.5,1-19.1c-1.3-2.1-2.8-2.9-5.3-2.9c-12.9,0.1-25.9,0.1-38.8,0c-2.7,0-5.4-0.4-8.2-0.6c-0.3-1.5-0.6-2.6-0.8-3.7
		c-9-47-29.1-88.5-60.6-124.6c-10.5-12-22.1-23-34.7-32.7c-57.5-43.9-122.3-61.4-194-52.1c-36.5,4.7-70.3,17.6-101.4,37.2
		c-34.9,22-63.2,50.3-84,86c-4.4,7.6-1.9,15,6.1,18.5c3.8,1.6,7.6,3.1,11.5,4.6c8.4,3.4,13.4,1.8,18.2-5.8
		c20.4-32.4,47.2-58.1,80.8-76.3c42.5-23,87.8-31.1,135.7-24.3c28.8,4.1,55.7,13.5,80.5,28.5c42.3,25.6,72.8,61.5,91,107.5
		C510,200.4,513.5,212.9,515.5,226.2z M93.7,331.6c1.6-0.1,2.5-0.2,3.4-0.2c14.2,0,28.4-0.3,42.6,0.1c5.2,0.2,8-1.9,10-6.1
		c0.3-0.7,1-1.4,1.1-2.1c0.3-1.6,0.9-3.6,0.2-4.8c-2.3-4.2-4.9-8.3-7.8-12.1c-4.5-5.9-9.3-11.4-14-17.1c-5.5-6.7-11.2-13.3-16.6-20
		c-4.2-5.1-8.2-10.5-12.5-15.6c-4.5-5.5-9.2-10.8-13.9-16.2c-4.5-5.2-12.2-8.1-18.5-2.2c-2.1,1.9-3.9,4.1-5.8,6.3
		c-5.4,6.3-10.8,12.7-16.2,19.1c-4.8,5.7-9.6,11.5-14.4,17.3c-4,4.8-8,9.7-12.1,14.4c-4.4,5.2-8.7,10.4-13.3,15.4
		c-6,6.5-6.9,12.7-2.5,20.5c1.2,2.1,2.7,3.1,5.4,3.1c13.7-0.1,27.5,0,41.2-0.1c2.4,0,3.3,0.8,4,3c2,6.8,4.1,13.7,6.6,20.4
		c22.4,61.1,62.4,107.1,119,139c34.3,19.3,71.5,28.1,110.1,31.5c21.9,1.9,43.9-0.8,65.5-5.4c67.2-14.5,119.8-50.7,159.5-106.2
		c4.3-6,2.3-12.7-4.4-15.6c-5.1-2.2-10.4-4.2-15.6-6.3c-7.5-3.1-11.4-2-16.1,4.4c-20.9,28.6-47.3,50.9-79.2,66.5
		c-43.9,21.5-90.1,28.6-137.9,18.6c-72.8-15.2-126.1-56.3-157.5-124.4C100.3,348.6,97.3,340.2,93.7,331.6z M305.2,175.7
		c-3.2-2.4-6.2-4.7-9.2-7c-11.9-9-25-15.6-40.2-15.8c-31.5-0.5-56.1,12.8-73.6,38.9c-6.7,10-11.2,21.3-12.7,33.3
		c-1.1,8.6,7,15.4,15.5,13.8c7.6-1.4,10-7.1,11.6-13.4c5.1-20.2,16.9-34.4,36.4-42.2c15.6-6.2,30.3-5.6,44,5
		c4.8,3.8,9.6,7.5,14.4,11.3c1.2,0.9,2.3,1.9,3.5,2.8c8.1,6.2,14.4,6,21.8-1c14.4-13.6,31.5-20.1,51.3-18.8
		c9.1,0.6,17.4,3.6,24.4,9.4c12.5,10.4,20.9,23.4,22.6,39.9c1.2,11.9,0.9,23.7-6.5,34.1c-1.9,2.6-3.3,5.6-4.9,8.3
		c-2,3.3-3.7,7.1-6.3,9.9c-6.6,6.8-13.7,13.1-20.4,19.7c-19.9,19.3-39.7,38.6-59.6,57.8c-3.9,3.8-8,7.6-12,11.4
		c-14.1-13.6-27.9-27-41.8-40.4c-10.1-9.7-20.6-19-30.3-29.1c-4.9-5.1-13.2-6.7-19.2-1.8c-5.4,4.5-6.1,12.6-1.2,18.6
		c2.2,2.8,5,5.1,7.5,7.6c24.5,23.8,49.1,47.5,73.6,71.2c8.1,7.9,14.9,7.9,23.1-0.1c5.2-5.1,10.5-10.1,15.7-15.1
		c28.2-27.3,56.3-54.6,84.4-82c11-10.7,18-23.7,22.1-38.5c2.7-9.8,1.2-19.7,1.8-29.6c0.7-10.4-2.1-20.1-6.2-29.4
		c-15.9-36.5-52.6-55.5-90.6-47C330,160.7,317.4,167.1,305.2,175.7z M294.1,265c-1.6,0-2.7,0-3.9,0c-8.2,0-16.4,0-24.6,0
		c-7.3,0-12.4,4.8-12.3,11.3c0.1,6.4,5.1,10.9,12.2,10.9c8.2,0,16.4,0,24.6,0c1.2,0,2.4,0.1,3.9,0.2c0,9.7,0,19,0,28.4
		c0,7.2,4.4,12.1,10.9,12.1c6.4,0,10.9-4.9,11-12.1c0.1-6,0-12,0-18c0-3.4,0-6.9,0-10.3c1.2-0.1,1.8-0.2,2.5-0.2c9,0,18,0.1,27,0
		c5.9-0.1,10.5-4.3,11-9.9c0.5-5.9-3-10.6-8.8-11.8c-1.7-0.3-3.4-0.4-5.1-0.4c-8.7,0-17.5,0-26.6,0c0-1.6,0-2.8,0-4.1
		c0-8.3,0.1-16.6,0-24.9c-0.1-6.9-4.5-11.4-10.8-11.4c-6.3-0.1-10.9,4.4-11,10.8C294.1,245,294.1,254.7,294.1,265z"/>
	<path class="st0" d="M515.5,226.2c-2.1-13.3-5.6-25.8-10.4-37.9c-18.3-46-48.7-81.9-91-107.5c-24.8-15-51.7-24.4-80.5-28.5
		c-47.9-6.8-93.2,1.4-135.7,24.3c-33.7,18.2-60.5,43.9-80.8,76.3c-4.7,7.5-9.8,9.2-18.2,5.8c-3.8-1.5-7.7-3-11.5-4.6
		c-8-3.5-10.5-10.9-6.1-18.5c20.8-35.7,49.2-64.1,84-86c31.1-19.6,64.9-32.5,101.4-37.2c71.7-9.3,136.5,8.2,194,52.1
		c12.7,9.7,24.2,20.7,34.7,32.7c31.5,36,51.7,77.6,60.6,124.6c0.2,1.1,0.5,2.2,0.8,3.7c2.7,0.2,5.4,0.6,8.2,0.6
		c12.9,0.1,25.9,0.1,38.8,0c2.5,0,4.1,0.9,5.3,2.9c3.4,5.6,4.4,12.7-1,19.1c-20.2,23.7-40.1,47.7-60,71.6c-3.9,4.6-8.4,7.4-14.5,5.2
		c-2.5-0.9-5-2.6-6.6-4.6c-20.2-24.1-40.3-48.4-60.4-72.7c-1.2-1.5-2.3-3.2-3.2-4.9c-3-5.5-1.1-12.9,4.3-16.1
		c0.9-0.5,2.2-0.5,3.3-0.5c13.5,0,27,0,40.5,0C512.8,226.2,514,226.2,515.5,226.2z"/>
	<path class="st0" d="M93.7,331.6c3.5,8.6,6.6,17.1,10.3,25.2c31.4,68.1,84.6,109.3,157.5,124.4c47.7,10,94,2.9,137.9-18.6
		c31.9-15.6,58.2-37.8,79.2-66.5c4.7-6.4,8.6-7.5,16.1-4.4c5.2,2.1,10.5,4.1,15.6,6.3c6.8,2.9,8.7,9.6,4.4,15.6
		c-39.8,55.5-92.4,91.8-159.5,106.2c-21.6,4.7-43.6,7.4-65.5,5.4c-38.5-3.4-75.8-12.2-110.1-31.5c-56.6-31.9-96.6-77.9-119-139
		c-2.5-6.7-4.5-13.5-6.6-20.4c-0.7-2.2-1.6-3.1-4-3c-13.7,0.1-27.5,0-41.2,0.1c-2.6,0-4.2-1-5.4-3.1c-4.4-7.8-3.5-14.1,2.5-20.5
		c4.6-5,8.9-10.2,13.3-15.4c4.1-4.8,8.1-9.6,12.1-14.4c4.8-5.8,9.6-11.6,14.4-17.3c5.4-6.4,10.8-12.8,16.2-19.1
		c1.9-2.2,3.7-4.4,5.8-6.3c6.3-5.8,14-3,18.5,2.2c4.7,5.4,9.4,10.7,13.9,16.2c4.3,5.1,8.2,10.4,12.5,15.6c5.5,6.7,11.1,13.3,16.6,20
		c4.7,5.7,9.5,11.3,14,17.1c2.9,3.8,5.5,7.9,7.8,12.1c0.7,1.2,0,3.2-0.2,4.8c-0.1,0.7-0.8,1.4-1.1,2.1c-2,4.2-4.8,6.3-10,6.1
		c-14.2-0.4-28.4-0.1-42.6-0.1C96.2,331.4,95.3,331.5,93.7,331.6z"/>
	<path class="st0" d="M305.2,175.7c12.1-8.6,24.8-14.9,39-18.1c38-8.5,74.8,10.5,90.6,47c4.1,9.4,6.9,19,6.2,29.4
		c-0.7,9.9,0.9,19.8-1.8,29.6c-4.1,14.8-11.1,27.8-22.1,38.5c-28.1,27.4-56.3,54.7-84.4,82c-5.2,5.1-10.5,10.1-15.7,15.1
		c-8.2,8-14.9,8-23.1,0.1c-24.5-23.7-49.1-47.5-73.6-71.2c-2.6-2.5-5.3-4.8-7.5-7.6c-4.9-6-4.2-14.1,1.2-18.6
		c6-4.9,14.3-3.3,19.2,1.8c9.7,10.1,20.2,19.4,30.3,29.1c13.9,13.4,27.7,26.8,41.8,40.4c4.1-3.8,8.1-7.6,12-11.4
		c19.9-19.3,39.7-38.6,59.6-57.8c6.8-6.6,13.9-12.8,20.4-19.7c2.6-2.8,4.3-6.5,6.3-9.9c1.7-2.8,3.1-5.7,4.9-8.3
		c7.4-10.4,7.7-22.3,6.5-34.1c-1.7-16.4-10-29.5-22.6-39.9c-7.1-5.8-15.4-8.8-24.4-9.4c-19.9-1.4-36.9,5.2-51.3,18.8
		c-7.4,7-13.7,7.2-21.8,1c-1.2-0.9-2.3-1.9-3.5-2.8c-4.8-3.8-9.6-7.5-14.4-11.3c-13.6-10.7-28.4-11.3-44-5
		c-19.5,7.8-31.3,22.1-36.4,42.2c-1.6,6.3-4,12-11.6,13.4c-8.5,1.6-16.6-5.3-15.5-13.8c1.6-12.1,6-23.3,12.7-33.3
		c17.5-26.1,42.1-39.4,73.6-38.9c15.2,0.2,28.3,6.8,40.2,15.8C299.1,170.9,302.1,173.3,305.2,175.7z"/>
	<path class="st0" d="M294.1,265c0-10.2-0.1-19.9,0-29.6c0.1-6.4,4.8-10.9,11-10.8c6.3,0.1,10.7,4.6,10.8,11.4
		c0.1,8.3,0,16.6,0,24.9c0,1.2,0,2.5,0,4.1c9.1,0,17.9,0,26.6,0c1.7,0,3.5,0,5.1,0.4c5.8,1.2,9.3,6,8.8,11.8
		c-0.5,5.6-5.1,9.8-11,9.9c-9,0.1-18,0-27,0c-0.7,0-1.4,0.1-2.5,0.2c0,3.5,0,6.9,0,10.3c0,6,0.1,12,0,18c-0.1,7.2-4.5,12.1-11,12.1
		c-6.5,0-10.9-4.8-10.9-12.1c0-9.3,0-18.7,0-28.4c-1.5-0.1-2.7-0.2-3.9-0.2c-8.2,0-16.4,0-24.6,0c-7.1,0-12.1-4.5-12.2-10.9
		c-0.1-6.5,5-11.2,12.3-11.3c8.2-0.1,16.4,0,24.6,0C291.4,265,292.5,265,294.1,265z"/>
</g>
</svg>
