<?xml version="1.0" encoding="utf-8"?>
<!-- Generator: Adobe Illustrator 27.0.0, SVG Export Plug-In . SVG Version: 6.00 Build 0)  -->
<svg version="1.1" id="Layer_1" xmlns="http://www.w3.org/2000/svg" xmlns:xlink="http://www.w3.org/1999/xlink" x="0px" y="0px"
	 viewBox="0 0 1920 1080" style="enable-background:new 0 0 1920 1080;" xml:space="preserve">
<style type="text/css">
	.st0{fill:#E6E6E6;}
	.st1{fill:#00A99D;}
	.st2{fill:#1E3947;}
	.st3{fill:#F8C09D;}
	.st4{fill:#42210B;}
	.st5{fill:#2A4C66;}
	.st6{fill:#754C24;}
	.st7{fill:#603813;}
	.st8{fill:#A67C52;}
	.st9{fill:#F6AE8D;}
	.st10{fill:#EF937E;}
	.st11{fill:none;stroke:#EF937E;stroke-width:3;stroke-linecap:round;stroke-miterlimit:10;}
	.st12{fill:none;stroke:#E6E6E6;stroke-width:7.9996;stroke-miterlimit:10;}
	.st13{fill:none;stroke:#808080;stroke-width:2.9999;stroke-miterlimit:10;}
	.st14{fill:none;stroke:#808080;stroke-width:3;stroke-linecap:round;stroke-miterlimit:10;}
	.st15{fill:#E26C60;}
	.st16{fill:#333333;}
	.st17{fill:#F2F2F2;}
	.st18{fill:#CCCCCC;}
	.st19{fill:#FFFFFF;}
	.st20{fill:#E53542;}
	.st21{fill:#CE2439;}
	
		.st22{clip-path:url(#SVGID_00000113329010625193037430000008168627615795138994_);fill:none;stroke:#E6E6E6;stroke-width:1.9999;stroke-miterlimit:10;}
	
		.st23{clip-path:url(#SVGID_00000104697166853137526810000013345845034339646112_);fill:none;stroke:#E6E6E6;stroke-width:1.9999;stroke-miterlimit:10;}
	
		.st24{clip-path:url(#SVGID_00000036962834908661881650000014128279079608740763_);fill:none;stroke:#E6E6E6;stroke-width:1.9999;stroke-miterlimit:10;}
	
		.st25{clip-path:url(#SVGID_00000084525205476496049030000018348560583101179543_);fill:none;stroke:#E6E6E6;stroke-width:1.9999;stroke-miterlimit:10;}
	
		.st26{clip-path:url(#SVGID_00000079480042117695534680000013201057566965618576_);fill:none;stroke:#E6E6E6;stroke-width:1.9999;stroke-miterlimit:10;}
	
		.st27{clip-path:url(#SVGID_00000113347591547098670700000013191439155020394396_);fill:none;stroke:#E6E6E6;stroke-width:1.9999;stroke-miterlimit:10;}
	
		.st28{clip-path:url(#SVGID_00000053520871529586095200000001223638904761580478_);fill:none;stroke:#E6E6E6;stroke-width:1.9999;stroke-miterlimit:10;}
	
		.st29{clip-path:url(#SVGID_00000138548116378305684260000002560789823427235743_);fill:none;stroke:#E6E6E6;stroke-width:1.9999;stroke-miterlimit:10;}
	
		.st30{clip-path:url(#SVGID_00000168099506986695263170000014169820016264303009_);fill:none;stroke:#E6E6E6;stroke-width:1.9999;stroke-miterlimit:10;}
	
		.st31{clip-path:url(#SVGID_00000179620818373777423230000006184219000099402148_);fill:none;stroke:#E6E6E6;stroke-width:1.9999;stroke-miterlimit:10;}
	
		.st32{clip-path:url(#SVGID_00000124125562489995715650000001039550169593704580_);fill:none;stroke:#E6E6E6;stroke-width:1.9999;stroke-miterlimit:10;}
	
		.st33{clip-path:url(#SVGID_00000102546073523088110370000007020302272512561295_);fill:none;stroke:#E6E6E6;stroke-width:1.9999;stroke-miterlimit:10;}
	.st34{fill:none;stroke:#E6E6E6;stroke-width:3.9998;stroke-miterlimit:10;}
	.st35{fill:#7C3E0B;}
	.st36{fill:#5E2E0A;}
	.st37{fill:#965422;}
	
		.st38{clip-path:url(#SVGID_00000012463415606849324110000002130075838901796487_);fill:none;stroke:#E6E6E6;stroke-width:1.9999;stroke-miterlimit:10;}
	
		.st39{clip-path:url(#SVGID_00000072958439105305427910000013717277002119364020_);fill:none;stroke:#E6E6E6;stroke-width:1.9999;stroke-miterlimit:10;}
	
		.st40{clip-path:url(#SVGID_00000047059348035386868810000010412419721439101338_);fill:none;stroke:#E6E6E6;stroke-width:1.9999;stroke-miterlimit:10;}
	
		.st41{clip-path:url(#SVGID_00000016773283954313393390000015219445875660323462_);fill:none;stroke:#E6E6E6;stroke-width:1.9999;stroke-miterlimit:10;}
	
		.st42{clip-path:url(#SVGID_00000133512011805441219530000001250137948737879424_);fill:none;stroke:#E6E6E6;stroke-width:1.9999;stroke-miterlimit:10;}
	
		.st43{clip-path:url(#SVGID_00000148628584385577795790000016120702159071585708_);fill:none;stroke:#E6E6E6;stroke-width:1.9999;stroke-miterlimit:10;}
	
		.st44{clip-path:url(#SVGID_00000118394634291331833480000000387081201954017699_);fill:none;stroke:#E6E6E6;stroke-width:1.9999;stroke-miterlimit:10;}
	
		.st45{clip-path:url(#SVGID_00000063600701187994598280000000940918089621459375_);fill:none;stroke:#E6E6E6;stroke-width:1.9999;stroke-miterlimit:10;}
	.st46{fill:#44A0C1;}
	.st47{fill:#1A1A1A;}
	.st48{fill:#443833;}
	.st49{fill:none;stroke:#FFFFFF;stroke-width:2.483;stroke-miterlimit:10;}
	.st50{fill:none;stroke:#1A1A1A;stroke-width:4.9661;stroke-miterlimit:10;}
	.st51{fill:none;stroke:#1A1A1A;stroke-width:5.6019;stroke-miterlimit:10;}
	.st52{fill:#738891;}
	.st53{fill:#BBEAE4;}
	.st54{fill:#96E2D7;}
	.st55{fill:#75D3C3;}
	.st56{fill:none;stroke:#808080;stroke-width:2.4075;stroke-linecap:round;stroke-miterlimit:10;}
	.st57{fill:#703B21;}
	.st58{fill:none;stroke:#91A89D;stroke-width:2.9103;stroke-miterlimit:10;}
	.st59{fill:none;stroke:#91A89D;stroke-width:2.9103;stroke-linecap:round;stroke-miterlimit:10;}
</style>
<g>
	<g>
		<path class="st0" d="M1782.5,821.2l6.1-0.3c12.8-0.6,24-12.8,27.1-28.9l58.4-300.8c1.9-10.2-2.8-19.7-10.7-21.1l0,0
			c-7.4-1.2-14.8,5.5-16.6,15.1L1782.5,821.2z"/>
		<path class="st1" d="M1546.2,794.5h201.6c16.3,0,29.5-13.2,29.5-29.5l0,0c0-16.3-13.2-29.5-29.5-29.5h-201.6
			c-16.3,0-29.5,13.2-29.5,29.5l0,0C1516.7,781.3,1529.9,794.5,1546.2,794.5z"/>
		<path class="st1" d="M1813.8,652.5l33.8-168.5c3.3-16-7.1-31.6-23.1-34.7l0,0c-16-3.3-31.6,7.1-34.7,23.1L1755.9,641
			c-3.3,16,7.1,31.6,23.1,34.7l0,0C1795.1,678.8,1810.7,668.4,1813.8,652.5z"/>
		<path class="st0" d="M1784.1,794.5h-237.3c-7.4,0-13.5,6.1-13.5,13.5l0,0c0,7.4,6.1,13.5,13.5,13.5h237.3
			c7.4,0,13.5-6.1,13.5-13.5l0,0C1797.6,800.6,1791.5,794.5,1784.1,794.5z"/>
		<path class="st0" d="M1515.5,1076.6L1515.5,1076.6c-6.2,0-10.7-5.8-9.2-11.9l62-251.7h19.7l-63.2,256.3
			C1523.8,1073.7,1519.9,1076.6,1515.5,1076.6z"/>
		<path class="st0" d="M1829.1,1076.6L1829.1,1076.6c6.2,0,10.7-5.8,9.2-11.9l-62-251.7h-19.7l63.2,256.2
			C1820.8,1073.7,1824.6,1076.6,1829.1,1076.6z"/>
	</g>
	<path class="st2" d="M1477.5,565.2L1477.5,565.2c11.7,9.5,29.1,7.6,38.4-4.2l113.3-141.2c9.5-11.7,7.6-29.1-4.2-38.4l0,0
		c-11.7-9.5-32.5,0.1-47.5,16.6l-104.3,128.9C1463.7,538.5,1465.6,555.7,1477.5,565.2z"/>
	<path class="st2" d="M1524.1,553.7L1524.1,553.7c4.3-14.5-3.9-29.7-18.4-34.1l-147.4-44.4l-15.7,52.4L1490,572
		C1504.5,576.4,1519.8,568.3,1524.1,553.7z"/>
	<g>
		<path class="st3" d="M1341.5,513.5l-3.3,16.3l-50.9-9.9c-4.5-0.9-7.4-5.2-6.5-9.8l0,0c0.9-4.5,5.2-7.4,9.8-6.5L1341.5,513.5z"/>
		<path class="st3" d="M1344.7,496.5l-3.7,16.2l-61.1-14.2c-4.5-1-7.3-5.5-6.2-9.9l0,0c1-4.5,5.5-7.3,9.9-6.2L1344.7,496.5z"/>
		<path class="st3" d="M1342.2,480.5l-5.5,15.7l-59.2-20.6c-4.3-1.5-6.7-6.2-5-10.5l0,0c1.5-4.3,6.2-6.7,10.5-5L1342.2,480.5z"/>
		<path class="st3" d="M1353.5,472.1l-8.3,14.4l-54.4-31.3c-4-2.2-5.3-7.4-3.1-11.3l0,0c2.2-4,7.4-5.3,11.3-3.1L1353.5,472.1z"/>
		<path class="st3" d="M1365.2,473.3l-13.8,9.2l-20.8-31.6c-2.5-3.9-1.5-9,2.4-11.6l0,0c3.9-2.5,9-1.5,11.6,2.4L1365.2,473.3z"/>
		<path class="st3" d="M1357.2,466.7l-12.5-4.3c-2.2-0.7-4.7,0.4-5.6,2.7l-19.1,54.7c-0.7,2.2,0.4,4.7,2.7,5.6l12.5,4.3
			c8.6,3,18.1-1.5,21.1-10.2l11.1-31.7C1370.4,479.1,1365.8,469.6,1357.2,466.7z"/>
	</g>
	<rect x="1510.4" y="656.5" class="st4" width="216.3" height="34.1"/>
	<path class="st5" d="M1718.4,411.9c-28.5-84.3-111.3-64.4-111.3-64.4c-23.6,0-96.6,22.3-96.6,83.7V657h217.3
		C1727.8,657,1746,493.5,1718.4,411.9z"/>
	<path class="st6" d="M1449.8,1016l-16.9,59.3h-113.2c0,0,4.5-26,34-31.3c29.4-5.3,54.3,10.4,54.3,10.4l16.3-38.4H1449.8z"/>
	<path class="st6" d="M1353.3,1016l-16.9,59.3h-113.2c0,0,4.5-26,34-31.3c29.5-5.3,54.3,10.4,54.3,10.4l16.3-38.4H1353.3z"/>
	<path class="st4" d="M1457.6,676.9l164.4-20.3L1635,699c4.9,16-4,33.2-20.2,38.1l-146,11.4l-101,274.6h-69l98.5-278.7
		c12.3-33.2,22.8-62.6,49.4-66L1457.6,676.9z"/>
	<path class="st7" d="M1537.1,676.9l190.6-20.3l1.6,42.4c1.3,20.9-4,33.2-20.2,38.1l-160.8,11.4l-86.2,274.6h-69l83.7-278.7
		C1490.9,705.9,1496.9,683.5,1537.1,676.9L1537.1,676.9z"/>
	<path class="st8" d="M1530,567.8c21.2,0,35,21.4,35,42.4v27.3c0,10.7-6.2,16.3-13.8,16.3l0,0c-7.7,0-12.3-5.6-12.3-16.3V622
		c0-12.8-1.3-23-13.5-23l0,0c-5,0-13.1,2.8-13.1,17.8v446.9c0,6.2-5,11.4-11.4,11.4h-3.9c-6.2,0-11.4-5-11.4-11.4V610.2
		c0-21.1,10.4-42.4,36.9-42.4H1530z"/>
	<path class="st2" d="M1729.5,624L1729.5,624c14.8-2.8,24.6-17.2,21.7-32l-34.1-177.9c-2.8-14.8-17.2-24.6-32-21.7l0,0
		c-14.8,2.8-24.6,17.2-21.7,32l34.1,177.9C1700.3,617.2,1714.7,626.9,1729.5,624z"/>
	<path class="st2" d="M1751.2,605.1L1751.2,605.1c2.1-15-8.5-28.8-23.4-30.9l-152.5-20.9l-7.4,54.3l152.5,20.9
		C1735.3,630.4,1749.1,620,1751.2,605.1z"/>
	<path class="st3" d="M1569,601.3c0,0-13.2-5.2-29.7-2.1c-16.5,3-28.6,9.3-33.8,9.5c-5.2,0.1-9.9-15.1,11.1-17.8
		c13.2-1.6,12.5-1.5,5.8-0.9s-14.1,2.7-21.2,9.8c-7.1,7.1-16.9,10.2-18.1,2.4c-1.2-7.9,6.1-11,6.1-11s-9.2,1.9-9.8-4.9
		c-0.6-6.8,7-13.8,11.4-17.1c0,0-3-7.6,6.1-10.4c9-2.8,24.3-10.1,34.7-11.7c10.4-1.6,41.7,18.8,41.7,18.8L1569,601.3z"/>
	<path class="st0" d="M1457.3,210.3c0-41.4,0.9-89.3,53.3-119.4c72.1-41.7,125.9,11.9,125.9,11.9s37.7-3.7,60.7,42.4
		c19.4,38.9,11.7,67.8,8.3,85.1c-10.4,53.7-57.6,102.9-125.3,102.9C1512.2,333.1,1457.3,278.1,1457.3,210.3z"/>
	<circle class="st9" cx="1574.7" cy="365.5" r="38.7"/>
	<path class="st3" d="M1567.7,377.4c43-9.9,101.3-47.6,101.3-118.2v-68.5c0-25.1-20.3-45.4-45.4-45.4h-111.7
		c-25.1,0-45.4,20.3-45.4,45.4v85.3c0,28,8.5,62.3,34.1,84.6C1521.4,378.4,1548.3,382,1567.7,377.4z"/>
	<circle class="st3" cx="1669.6" cy="230.2" r="28.8"/>
	<path class="st10" d="M1675.4,234.4c0-5.6-4.6-10.2-10.2-10.2c-1.5,0-3,0.3-4.3,1c1.8-3,5-5,8.8-5c5.6,0,10.2,4.6,10.2,10.2
		c0,4.2-2.4,7.6-5.9,9.2C1674.9,237.9,1675.4,236.1,1675.4,234.4z"/>
	<path class="st0" d="M1466.5,178.7c0,0,22.5-28,59.3-28s73.3,10.1,73.3,10.1s28,50.7,46.6,53.4c25.7,3.6,23.9-12.8,23.9-12.8
		l0.1-71.2l-183.9,13.5L1466.5,178.7z"/>
	<line class="st11" x1="1502.6" y1="174.1" x2="1551.5" y2="174.1"/>
	<line class="st11" x1="1493.7" y1="190.4" x2="1560.4" y2="190.4"/>
	<path class="st12" d="M1470.7,217.4c0,0,7.9-2.2,12.3-2.2c9.5,0,15.4,3.6,15.4,3.6"/>
	<path class="st12" d="M1544.8,217.4c0,0,7.9-2.2,12.3-2.2c9.5,0,15.4,3.6,15.4,3.6"/>
	<path class="st13" d="M1552.3,254.1h15.7c12.3,0,22.4-10.1,22.4-22.4l0,0c0-12.3-10.1-22.4-22.4-22.4h-15.7
		c-12.3,0-22.4,10.1-22.4,22.4l0,0C1529.9,244.1,1539.8,254.1,1552.3,254.1z"/>
	<path class="st13" d="M1483,254.1h15.7c12.3,0,22.4-10.1,22.4-22.4l0,0c0-12.3-10.1-22.4-22.4-22.4H1483
		c-12.3,0-22.4,10.1-22.4,22.4l0,0C1460.6,244.1,1470.5,254.1,1483,254.1z"/>
	<line class="st13" x1="1532.4" y1="231.7" x2="1521" y2="232"/>
	<path class="st14" d="M1659.8,215.7c0,0-1.9,0-18.7,0c-15.9,0-51,16.8-51,16.8"/>
	<path class="st15" d="M1500.9,305.7c0,8.8,7.1,15,15.9,15l0,0c8.8,0,15.9-6.2,15.9-15"/>
	<path class="st0" d="M1485.1,302c-0.3-2.7,1-5.2,3.6-6.2c4.6-1.9,25.2-7.3,25.2-7.3s24.8,4,30.1,5.8c2.4,0.7,4,2.8,4.2,5.3l0.4,7.9
		c0.3,3.9-3.3,7-7.1,6.2c-7.4-1.5-27.6-5.5-27.6-5.5s-14.7,4-20,5.8c-3.6,1.2-7.3-1.2-7.9-4.9L1485.1,302z"/>
	<path class="st10" d="M1519,260.2v19.6c0,0.9-1,1.6-1.9,1.6h-11.6c-3.1,0-4.9-3.7-2.8-6.1l13.4-16
		C1517,257.9,1519,258.7,1519,260.2z"/>
	<ellipse class="st16" cx="1482.1" cy="234.5" rx="5.5" ry="9.6"/>
	<ellipse class="st16" cx="1557" cy="234.5" rx="5.5" ry="9.6"/>
	<g>
		<rect x="637.3" y="531" class="st16" width="61.1" height="83.2"/>
		<path class="st1" d="M801.7,770.5H532.7c-16.2,0-29.2-13.1-29.2-29.2V623.3c0-16.2,13.1-29.2,29.2-29.2h268.9
			c16.2,0,29.2,13.1,29.2,29.2v117.9C830.9,757.4,817.8,770.5,801.7,770.5z"/>
		<path class="st1" d="M801.7,553.4H532.7c-16.2,0-29.2-13.1-29.2-29.2V406.3c0-16.2,13.1-29.2,29.2-29.2h268.9
			c16.2,0,29.2,13.1,29.2,29.2v117.9C830.9,540.4,817.8,553.4,801.7,553.4z"/>
		<path class="st16" d="M684.9,812h-35.5c-9.6,0-17.5-7.9-17.5-17.5v-8h70.3v8C702.4,804.3,694.6,812,684.9,812z"/>
		<path class="st16" d="M790.1,789.1H544.4c-5.2,0-9.3-4.2-9.3-9.3l0,0c0-5.2,4.2-9.3,9.3-9.3h245.8c5.2,0,9.3,4.2,9.3,9.3l0,0
			C799.4,785,795.3,789.1,790.1,789.1z"/>
		<rect x="650.1" y="812" class="st0" width="34.3" height="109.3"/>
		<path class="st16" d="M689.7,921.3h-44.9c-7,0-12.8-5.6-12.8-12.8l0,0c0-7,5.6-12.8,12.8-12.8h44.9c7,0,12.8,5.6,12.8,12.8l0,0
			C702.4,915.7,696.8,921.3,689.7,921.3z"/>
		<path class="st0" d="M544.7,1017.3h28.5l-0.3-26.8c3.7-6.8,8.9-12.8,15.1-17.4l85.9-51.6h-42l-68.2,43.6c-4.9,4-9,8.9-12.3,14.5
			L544.7,1017.3z"/>
		<path class="st0" d="M789.2,1017.3h-28.5l0.3-26.8c-3.7-6.8-8.9-12.8-15.1-17.4L660,921.3h42l68.2,43.6c4.9,4,9,8.9,12.3,14.5
			L789.2,1017.3z"/>
		<circle class="st16" cx="559.7" cy="1017.3" r="22.5"/>
		<circle class="st16" cx="775.6" cy="1017.3" r="22.5"/>
		<rect x="652.4" y="921.3" class="st0" width="28.3" height="93.5"/>
		<circle class="st16" cx="667.3" cy="1017.3" r="22.5"/>
	</g>
	<path class="st17" d="M394.5,557.7H97.1c-6.5,0-12.2-4.5-13.6-10.8l-38.6-169c-1.9-8.8,4.6-17.1,13.6-17.1h297.4
		c6.5,0,12.2,4.5,13.6,10.8l38.6,169C410,549.4,403.4,557.7,394.5,557.7z"/>
	<path class="st18" d="M455.7,593.6h-73.1v-25.4h94v4.5C476.7,584.3,467.3,593.6,455.7,593.6z"/>
	<path class="st0" d="M405.2,593.6H108c-12.2,0-22.1-9.9-22.1-22.1v-3.3H428v2.5C428,583.4,417.8,593.6,405.2,593.6z"/>
	<polygon class="st18" points="395.8,568.4 108.2,568.4 104,557.7 391.8,557.7 	"/>
	<circle class="st19" cx="224.9" cy="466.2" r="33.5"/>
	<g>
		<polygon class="st17" points="1062.6,594.2 931.6,594.2 958,480 1089,480 		"/>
		<polygon class="st18" points="1089,476 1114.2,590.2 1062.6,590.2 		"/>
		<polygon class="st20" points="1081.6,511.6 950.6,511.6 958,480 1089,480 		"/>
		<g>
			<path class="st16" d="M982.9,535.5h-0.1l-9.9,4.5l-0.3-8.8l14.1-6.1h9l-9.5,50.6h-10.8L982.9,535.5z"/>
			<path class="st16" d="M999.7,575.7l1.3-7.3l10.8-8.5c10.1-8.3,16.6-14.2,16.6-20.3c0-3.6-2.5-6.1-7-6.1s-8,1.3-10.7,3l-2.2-8
				c4-2.5,9.9-4.3,15.7-4.3c10.2,0,15.9,5.9,15.9,13.8c0,10.4-8.3,17.5-17.2,24.3l-5,3.6v0.1h18.1l-1.8,9.6L999.7,575.7L999.7,575.7
				z"/>
		</g>
	</g>
	<g>
		<path class="st20" d="M1187.8,593.5h59c2.7,0,4.9-2.2,4.9-4.9v-95.1H1183v95.2C1183,591.4,1185.1,593.5,1187.8,593.5z"/>
		<path class="st21" d="M1194.3,493.7v95.1c0,2.7,2.2,4.9,4.9,4.9h-11.3c-2.7,0-4.9-2.2-4.9-4.9v-95.1H1194.3z"/>
		<g>
			<g>
				<path id="SVGID_1_" class="st19" d="M1183.5,467.4h67.8c2.8,0,5.2,2.4,5.2,5.2v16c0,2.8-2.4,5.2-5.2,5.2h-67.8
					c-2.8,0-5.2-2.4-5.2-5.2v-16C1178.3,469.6,1180.7,467.4,1183.5,467.4z"/>
			</g>
			<g>
				<defs>
					<path id="SVGID_00000123441793252102734580000001697544203845088659_" d="M1183.5,467.4h67.8c2.8,0,5.2,2.4,5.2,5.2v16
						c0,2.8-2.4,5.2-5.2,5.2h-67.8c-2.8,0-5.2-2.4-5.2-5.2v-16C1178.3,469.6,1180.7,467.4,1183.5,467.4z"/>
				</defs>
				<clipPath id="SVGID_00000088100682044180145370000012810536966952741554_">
					<use xlink:href="#SVGID_00000123441793252102734580000001697544203845088659_"  style="overflow:visible;"/>
				</clipPath>
				
					<line style="clip-path:url(#SVGID_00000088100682044180145370000012810536966952741554_);fill:none;stroke:#E6E6E6;stroke-width:1.9999;stroke-miterlimit:10;" x1="1257.8" y1="471.4" x2="1257.8" y2="499"/>
			</g>
			<g>
				<defs>
					<path id="SVGID_00000175312592092561660150000010809333000978047397_" d="M1183.5,467.4h67.8c2.8,0,5.2,2.4,5.2,5.2v16
						c0,2.8-2.4,5.2-5.2,5.2h-67.8c-2.8,0-5.2-2.4-5.2-5.2v-16C1178.3,469.6,1180.7,467.4,1183.5,467.4z"/>
				</defs>
				<clipPath id="SVGID_00000132075322347844828530000008498963575792863639_">
					<use xlink:href="#SVGID_00000175312592092561660150000010809333000978047397_"  style="overflow:visible;"/>
				</clipPath>
				
					<line style="clip-path:url(#SVGID_00000132075322347844828530000008498963575792863639_);fill:none;stroke:#E6E6E6;stroke-width:1.9999;stroke-miterlimit:10;" x1="1250.4" y1="471.4" x2="1250.4" y2="499"/>
			</g>
			<g>
				<defs>
					<path id="SVGID_00000060000486485701515100000010365602425893419428_" d="M1183.5,467.4h67.8c2.8,0,5.2,2.4,5.2,5.2v16
						c0,2.8-2.4,5.2-5.2,5.2h-67.8c-2.8,0-5.2-2.4-5.2-5.2v-16C1178.3,469.6,1180.7,467.4,1183.5,467.4z"/>
				</defs>
				<clipPath id="SVGID_00000033334858334352105730000012316306814052931247_">
					<use xlink:href="#SVGID_00000060000486485701515100000010365602425893419428_"  style="overflow:visible;"/>
				</clipPath>
				
					<line style="clip-path:url(#SVGID_00000033334858334352105730000012316306814052931247_);fill:none;stroke:#E6E6E6;stroke-width:1.9999;stroke-miterlimit:10;" x1="1243.1" y1="471.4" x2="1243.1" y2="499"/>
			</g>
			<g>
				<defs>
					<path id="SVGID_00000085229972066768005050000016549165058985312438_" d="M1183.5,467.4h67.8c2.8,0,5.2,2.4,5.2,5.2v16
						c0,2.8-2.4,5.2-5.2,5.2h-67.8c-2.8,0-5.2-2.4-5.2-5.2v-16C1178.3,469.6,1180.7,467.4,1183.5,467.4z"/>
				</defs>
				<clipPath id="SVGID_00000168099859242678751110000003823457627314586298_">
					<use xlink:href="#SVGID_00000085229972066768005050000016549165058985312438_"  style="overflow:visible;"/>
				</clipPath>
				
					<line style="clip-path:url(#SVGID_00000168099859242678751110000003823457627314586298_);fill:none;stroke:#E6E6E6;stroke-width:1.9999;stroke-miterlimit:10;" x1="1235.7" y1="471.4" x2="1235.7" y2="499"/>
			</g>
			<g>
				<defs>
					<path id="SVGID_00000023990973990205510150000010778612016738801083_" d="M1183.5,467.4h67.8c2.8,0,5.2,2.4,5.2,5.2v16
						c0,2.8-2.4,5.2-5.2,5.2h-67.8c-2.8,0-5.2-2.4-5.2-5.2v-16C1178.3,469.6,1180.7,467.4,1183.5,467.4z"/>
				</defs>
				<clipPath id="SVGID_00000125597771181400393340000002838139188980692652_">
					<use xlink:href="#SVGID_00000023990973990205510150000010778612016738801083_"  style="overflow:visible;"/>
				</clipPath>
				
					<line style="clip-path:url(#SVGID_00000125597771181400393340000002838139188980692652_);fill:none;stroke:#E6E6E6;stroke-width:1.9999;stroke-miterlimit:10;" x1="1228.4" y1="471.4" x2="1228.4" y2="499"/>
			</g>
			<g>
				<defs>
					<path id="SVGID_00000011745923157910310010000000413076376816022409_" d="M1183.5,467.4h67.8c2.8,0,5.2,2.4,5.2,5.2v16
						c0,2.8-2.4,5.2-5.2,5.2h-67.8c-2.8,0-5.2-2.4-5.2-5.2v-16C1178.3,469.6,1180.7,467.4,1183.5,467.4z"/>
				</defs>
				<clipPath id="SVGID_00000024697992014857634340000013581327941747647924_">
					<use xlink:href="#SVGID_00000011745923157910310010000000413076376816022409_"  style="overflow:visible;"/>
				</clipPath>
				
					<line style="clip-path:url(#SVGID_00000024697992014857634340000013581327941747647924_);fill:none;stroke:#E6E6E6;stroke-width:1.9999;stroke-miterlimit:10;" x1="1221" y1="471.4" x2="1221" y2="499"/>
			</g>
			<g>
				<defs>
					<path id="SVGID_00000100358979187555602820000000620443633619793306_" d="M1183.5,467.4h67.8c2.8,0,5.2,2.4,5.2,5.2v16
						c0,2.8-2.4,5.2-5.2,5.2h-67.8c-2.8,0-5.2-2.4-5.2-5.2v-16C1178.3,469.6,1180.7,467.4,1183.5,467.4z"/>
				</defs>
				<clipPath id="SVGID_00000085933518603831312730000006841783497057107127_">
					<use xlink:href="#SVGID_00000100358979187555602820000000620443633619793306_"  style="overflow:visible;"/>
				</clipPath>
				
					<line style="clip-path:url(#SVGID_00000085933518603831312730000006841783497057107127_);fill:none;stroke:#E6E6E6;stroke-width:1.9999;stroke-miterlimit:10;" x1="1213.6" y1="471.4" x2="1213.6" y2="499"/>
			</g>
			<g>
				<defs>
					<path id="SVGID_00000054248445375516141960000006629869339154172041_" d="M1183.5,467.4h67.8c2.8,0,5.2,2.4,5.2,5.2v16
						c0,2.8-2.4,5.2-5.2,5.2h-67.8c-2.8,0-5.2-2.4-5.2-5.2v-16C1178.3,469.6,1180.7,467.4,1183.5,467.4z"/>
				</defs>
				<clipPath id="SVGID_00000170256610260928244080000008951482002873460403_">
					<use xlink:href="#SVGID_00000054248445375516141960000006629869339154172041_"  style="overflow:visible;"/>
				</clipPath>
				
					<line style="clip-path:url(#SVGID_00000170256610260928244080000008951482002873460403_);fill:none;stroke:#E6E6E6;stroke-width:1.9999;stroke-miterlimit:10;" x1="1206.3" y1="471.4" x2="1206.3" y2="499"/>
			</g>
			<g>
				<defs>
					<path id="SVGID_00000005967955847295789070000007269632675304492725_" d="M1183.5,467.4h67.8c2.8,0,5.2,2.4,5.2,5.2v16
						c0,2.8-2.4,5.2-5.2,5.2h-67.8c-2.8,0-5.2-2.4-5.2-5.2v-16C1178.3,469.6,1180.7,467.4,1183.5,467.4z"/>
				</defs>
				<clipPath id="SVGID_00000054950629731051145750000010954324074633952917_">
					<use xlink:href="#SVGID_00000005967955847295789070000007269632675304492725_"  style="overflow:visible;"/>
				</clipPath>
				
					<line style="clip-path:url(#SVGID_00000054950629731051145750000010954324074633952917_);fill:none;stroke:#E6E6E6;stroke-width:1.9999;stroke-miterlimit:10;" x1="1198.9" y1="471.4" x2="1198.9" y2="499"/>
			</g>
			<g>
				<defs>
					<path id="SVGID_00000065052942132518066530000007217073676645408940_" d="M1183.5,467.4h67.8c2.8,0,5.2,2.4,5.2,5.2v16
						c0,2.8-2.4,5.2-5.2,5.2h-67.8c-2.8,0-5.2-2.4-5.2-5.2v-16C1178.3,469.6,1180.7,467.4,1183.5,467.4z"/>
				</defs>
				<clipPath id="SVGID_00000174602115819263871760000017332095160707439490_">
					<use xlink:href="#SVGID_00000065052942132518066530000007217073676645408940_"  style="overflow:visible;"/>
				</clipPath>
				
					<line style="clip-path:url(#SVGID_00000174602115819263871760000017332095160707439490_);fill:none;stroke:#E6E6E6;stroke-width:1.9999;stroke-miterlimit:10;" x1="1191.7" y1="471.4" x2="1191.7" y2="499"/>
			</g>
			<g>
				<defs>
					<path id="SVGID_00000039851515105580212020000002809167838339029172_" d="M1183.5,467.4h67.8c2.8,0,5.2,2.4,5.2,5.2v16
						c0,2.8-2.4,5.2-5.2,5.2h-67.8c-2.8,0-5.2-2.4-5.2-5.2v-16C1178.3,469.6,1180.7,467.4,1183.5,467.4z"/>
				</defs>
				<clipPath id="SVGID_00000031889754791471489560000014683584560564837278_">
					<use xlink:href="#SVGID_00000039851515105580212020000002809167838339029172_"  style="overflow:visible;"/>
				</clipPath>
				
					<line style="clip-path:url(#SVGID_00000031889754791471489560000014683584560564837278_);fill:none;stroke:#E6E6E6;stroke-width:1.9999;stroke-miterlimit:10;" x1="1184.2" y1="471.4" x2="1184.2" y2="499"/>
			</g>
			<g>
				<defs>
					<path id="SVGID_00000142148038263940472940000013149026307561755285_" d="M1183.5,467.4h67.8c2.8,0,5.2,2.4,5.2,5.2v16
						c0,2.8-2.4,5.2-5.2,5.2h-67.8c-2.8,0-5.2-2.4-5.2-5.2v-16C1178.3,469.6,1180.7,467.4,1183.5,467.4z"/>
				</defs>
				<clipPath id="SVGID_00000029017570814206474680000001545222609545497244_">
					<use xlink:href="#SVGID_00000142148038263940472940000013149026307561755285_"  style="overflow:visible;"/>
				</clipPath>
				
					<line style="clip-path:url(#SVGID_00000029017570814206474680000001545222609545497244_);fill:none;stroke:#E6E6E6;stroke-width:1.9999;stroke-miterlimit:10;" x1="1177" y1="471.4" x2="1177" y2="499"/>
			</g>
		</g>
		<path class="st19" d="M1210.2,570.6h41.5v-60.8h-41.5c-2.5,0-4.6,2.1-4.6,4.6V566C1205.6,568.6,1207.7,570.6,1210.2,570.6z"/>
		<line class="st34" x1="1251.7" y1="522.4" x2="1217.3" y2="522.4"/>
		<line class="st34" x1="1251.7" y1="534.6" x2="1217.3" y2="534.6"/>
		<line class="st34" x1="1251.7" y1="546.8" x2="1217.3" y2="546.8"/>
		<line class="st34" x1="1251.7" y1="558.9" x2="1217.3" y2="558.9"/>
	</g>
	<g>
		<rect x="1118.5" y="504" class="st4" width="65" height="80.5"/>
		<path class="st35" d="M1170.9,472.6v-6.4h-40.9v6.4c0,0-23.7,14.2-23.7,34c0,19.7,0,79.7,0,79.7c0,4,3.3,7.3,7.3,7.3h74
			c4,0,7.3-3.3,7.3-7.3c0,0,0-61.3,0-79.7C1194.8,488.2,1170.9,472.6,1170.9,472.6z"/>
		<path class="st36" d="M1170.9,472.6v-6.4H1156v6.4c0,0,23.7,15.7,23.7,34c0,18.2,0,79.7,0,79.7c0,4-3.3,7.3-7.3,7.3h14.8
			c4,0,7.3-3.3,7.3-7.3c0,0,0-61.3,0-79.7C1194.6,488.2,1170.9,472.6,1170.9,472.6z"/>
		<path class="st37" d="M1138.1,466.2L1138.1,466.2c0,3.9-1.8,7.4-4.7,9.6c-7,5.3-19,16.6-19,30.7v79.7c0,4,3.3,7.3,7.3,7.3h19
			c-4,0-7.3-3.3-7.3-7.3c0,0,0-59.8,0-79.7c0-14.1,12-25.4,19-30.7c3-2.4,4.7-5.9,4.7-9.6l0,0L1138.1,466.2L1138.1,466.2z"/>
		<rect x="1106.1" y="519.9" class="st17" width="88.6" height="49.7"/>
		<path class="st20" d="M1183.3,561.3h-65.9c-1.6,0-3-1.3-3-3V531c0-1.6,1.3-3,3-3h65.9c1.6,0,3,1.3,3,3v27.3
			C1186.3,560,1185,561.3,1183.3,561.3z"/>
		<g>
			<g>
				<path id="SVGID_3_" class="st19" d="M1171.8,466.2h-42.7c-3.3,0-5.9-2.7-5.9-5.9v-15.7c0-3.3,2.7-5.9,5.9-5.9h42.7
					c3.3,0,5.9,2.7,5.9,5.9v15.7C1177.6,463.5,1175,466.2,1171.8,466.2z"/>
			</g>
			<g>
				<defs>
					<path id="SVGID_00000103974873279400887200000009034636388935146173_" d="M1171.8,466.2h-42.7c-3.3,0-5.9-2.7-5.9-5.9v-15.7
						c0-3.3,2.7-5.9,5.9-5.9h42.7c3.3,0,5.9,2.7,5.9,5.9v15.7C1177.6,463.5,1175,466.2,1171.8,466.2z"/>
				</defs>
				<clipPath id="SVGID_00000131334227168152535260000011681157805229001148_">
					<use xlink:href="#SVGID_00000103974873279400887200000009034636388935146173_"  style="overflow:visible;"/>
				</clipPath>
				
					<line style="clip-path:url(#SVGID_00000131334227168152535260000011681157805229001148_);fill:none;stroke:#E6E6E6;stroke-width:1.9999;stroke-miterlimit:10;" x1="1124.6" y1="441.7" x2="1124.6" y2="469.2"/>
			</g>
			<g>
				<defs>
					<path id="SVGID_00000174566264250077730970000000344291476745610891_" d="M1171.8,466.2h-42.7c-3.3,0-5.9-2.7-5.9-5.9v-15.7
						c0-3.3,2.7-5.9,5.9-5.9h42.7c3.3,0,5.9,2.7,5.9,5.9v15.7C1177.6,463.5,1175,466.2,1171.8,466.2z"/>
				</defs>
				<clipPath id="SVGID_00000075120203357685473820000002089990696434519958_">
					<use xlink:href="#SVGID_00000174566264250077730970000000344291476745610891_"  style="overflow:visible;"/>
				</clipPath>
				
					<line style="clip-path:url(#SVGID_00000075120203357685473820000002089990696434519958_);fill:none;stroke:#E6E6E6;stroke-width:1.9999;stroke-miterlimit:10;" x1="1132" y1="441.7" x2="1132" y2="469.2"/>
			</g>
			<g>
				<defs>
					<path id="SVGID_00000113329616275440235030000001068525432443565447_" d="M1171.8,466.2h-42.7c-3.3,0-5.9-2.7-5.9-5.9v-15.7
						c0-3.3,2.7-5.9,5.9-5.9h42.7c3.3,0,5.9,2.7,5.9,5.9v15.7C1177.6,463.5,1175,466.2,1171.8,466.2z"/>
				</defs>
				<clipPath id="SVGID_00000113336494100494684210000015391507631738214802_">
					<use xlink:href="#SVGID_00000113329616275440235030000001068525432443565447_"  style="overflow:visible;"/>
				</clipPath>
				
					<line style="clip-path:url(#SVGID_00000113336494100494684210000015391507631738214802_);fill:none;stroke:#E6E6E6;stroke-width:1.9999;stroke-miterlimit:10;" x1="1139.3" y1="441.7" x2="1139.3" y2="469.2"/>
			</g>
			<g>
				<defs>
					<path id="SVGID_00000026142069068403395030000012186998997967615891_" d="M1171.8,466.2h-42.7c-3.3,0-5.9-2.7-5.9-5.9v-15.7
						c0-3.3,2.7-5.9,5.9-5.9h42.7c3.3,0,5.9,2.7,5.9,5.9v15.7C1177.6,463.5,1175,466.2,1171.8,466.2z"/>
				</defs>
				<clipPath id="SVGID_00000081607661926057852120000009476601742606467752_">
					<use xlink:href="#SVGID_00000026142069068403395030000012186998997967615891_"  style="overflow:visible;"/>
				</clipPath>
				
					<line style="clip-path:url(#SVGID_00000081607661926057852120000009476601742606467752_);fill:none;stroke:#E6E6E6;stroke-width:1.9999;stroke-miterlimit:10;" x1="1146.7" y1="441.7" x2="1146.7" y2="469.2"/>
			</g>
			<g>
				<defs>
					<path id="SVGID_00000109024696257893837040000008681993056527596449_" d="M1171.8,466.2h-42.7c-3.3,0-5.9-2.7-5.9-5.9v-15.7
						c0-3.3,2.7-5.9,5.9-5.9h42.7c3.3,0,5.9,2.7,5.9,5.9v15.7C1177.6,463.5,1175,466.2,1171.8,466.2z"/>
				</defs>
				<clipPath id="SVGID_00000016773158903317834940000014197203607280244108_">
					<use xlink:href="#SVGID_00000109024696257893837040000008681993056527596449_"  style="overflow:visible;"/>
				</clipPath>
				
					<line style="clip-path:url(#SVGID_00000016773158903317834940000014197203607280244108_);fill:none;stroke:#E6E6E6;stroke-width:1.9999;stroke-miterlimit:10;" x1="1154" y1="441.7" x2="1154" y2="469.2"/>
			</g>
			<g>
				<defs>
					<path id="SVGID_00000015316341364758280880000009086691888693517992_" d="M1171.8,466.2h-42.7c-3.3,0-5.9-2.7-5.9-5.9v-15.7
						c0-3.3,2.7-5.9,5.9-5.9h42.7c3.3,0,5.9,2.7,5.9,5.9v15.7C1177.6,463.5,1175,466.2,1171.8,466.2z"/>
				</defs>
				<clipPath id="SVGID_00000052067771506667859350000012125211896171339199_">
					<use xlink:href="#SVGID_00000015316341364758280880000009086691888693517992_"  style="overflow:visible;"/>
				</clipPath>
				
					<line style="clip-path:url(#SVGID_00000052067771506667859350000012125211896171339199_);fill:none;stroke:#E6E6E6;stroke-width:1.9999;stroke-miterlimit:10;" x1="1161.4" y1="441.7" x2="1161.4" y2="469.2"/>
			</g>
			<g>
				<defs>
					<path id="SVGID_00000098922022598942549090000010093440749904266653_" d="M1171.8,466.2h-42.7c-3.3,0-5.9-2.7-5.9-5.9v-15.7
						c0-3.3,2.7-5.9,5.9-5.9h42.7c3.3,0,5.9,2.7,5.9,5.9v15.7C1177.6,463.5,1175,466.2,1171.8,466.2z"/>
				</defs>
				<clipPath id="SVGID_00000078747126403919194640000015446066372836661164_">
					<use xlink:href="#SVGID_00000098922022598942549090000010093440749904266653_"  style="overflow:visible;"/>
				</clipPath>
				
					<line style="clip-path:url(#SVGID_00000078747126403919194640000015446066372836661164_);fill:none;stroke:#E6E6E6;stroke-width:1.9999;stroke-miterlimit:10;" x1="1168.8" y1="441.7" x2="1168.8" y2="469.2"/>
			</g>
			<g>
				<defs>
					<path id="SVGID_00000178926403827968212030000011083761943973087898_" d="M1171.8,466.2h-42.7c-3.3,0-5.9-2.7-5.9-5.9v-15.7
						c0-3.3,2.7-5.9,5.9-5.9h42.7c3.3,0,5.9,2.7,5.9,5.9v15.7C1177.6,463.5,1175,466.2,1171.8,466.2z"/>
				</defs>
				<clipPath id="SVGID_00000065763707522876747410000014926415859456725395_">
					<use xlink:href="#SVGID_00000178926403827968212030000011083761943973087898_"  style="overflow:visible;"/>
				</clipPath>
				
					<line style="clip-path:url(#SVGID_00000065763707522876747410000014926415859456725395_);fill:none;stroke:#E6E6E6;stroke-width:1.9999;stroke-miterlimit:10;" x1="1176.1" y1="441.7" x2="1176.1" y2="469.2"/>
			</g>
		</g>
		<rect x="1129.8" y="466.2" class="st4" width="40.9" height="4"/>
	</g>
	<g>
		<path class="st3" d="M741,654.6l-164.4-20.3l-19,42.4c-4.9,16,4,33.2,20.2,38.1l146,11.4l61.9,231.6H825l-29.7-235.7
			c-2.4-33.7,1.6-51.6-38.4-64.4L741,654.6z"/>
		<path class="st3" d="M653.8,658.3l-110.2-24l-7.6,42.4c-1.3,20.9,33.5,48.8,49.5,53.8l57-0.4l39,227.8h39.3l-6.7-231.9
			c-2.4-33.7,1.6-51.6-38.4-64.4L653.8,658.3z"/>
		<path class="st17" d="M520.9,339.4c0,0,17.8-12,59.9-12.9c26.8-0.4-30.4,41.1-30.4,41.1L520.9,339.4z"/>
		<path class="st17" d="M715.9,326.5c0,0,67.9-4.3,79.1,19.3c10.5,22.4-24.6,34.3-24.6,34.3L715.9,326.5z"/>
		<path class="st17" d="M784,636.5H528.9l36.3-99.2l-23.6-163.6c0-26,16-47,35.9-47h153.5c19.9,0,35.9,21.1,35.9,47L746,531.3
			L784,636.5z"/>
		<polygon class="st3" points="630.9,326.5 637.9,391 702,391 706.9,326.5 		"/>
		<path class="st46" d="M637.9,376.9c0,0,19.1,14.1,41.2,14.1c22.1,0,26.3-14.1,26.3-14.1l-17.1,94.6L637.9,376.9z"/>
		<polygon class="st19" points="706.9,326.5 688.3,471.5 734.9,377.7 722.9,366.2 738.2,350.4 		"/>
		<polygon class="st19" points="630.9,326.5 688.3,471.5 602.7,377.7 614.8,366.2 599.6,350.4 		"/>
		<path class="st17" d="M633,461.9h-29.4c-5.5,0-9.9-4.5-9.9-9.9v-6.4h49.4v6.4C643.1,457.3,638.5,461.9,633,461.9z"/>
		<path class="st3" d="M825.4,957.4l18.1,81.7c0,0-1.8,27.1-23,27.1s-25.4-20.6-28.9-39c-3.6-18.2-4.5-69.9-4.5-69.9H825.4z"/>
		<path class="st47" d="M778.8,976.5c0.3,2.2-5.8,64.4-2.4,64.4c5.3,0,10.8,0,10.8,0s-6.4-57.3-4.2-64.4
			C785.2,969.4,778.8,976.5,778.8,976.5z"/>
		<path class="st48" d="M839.8,1022c-7.1-4.9-10.4-4.6-21.1-2.7s-18.8,7.9-24.5,11.4c-5.6,3.6-2.7-20.6-3.3-40.8
			c-0.6-20-3.9-32.6-3.9-32.6l-1.9-7c0,0-8.9,4.9-7.3,19.6c1.8,14.8,5.9,55.8,5.3,73.3c-0.6,17.7,25.4,26.4,47.8,27
			c22.4,0.6,21.4-5.8,20.2-17.4C850.2,1042.1,846.9,1026.9,839.8,1022z"/>
		<path class="st3" d="M721.1,957.4l18.1,81.7c0,0-1.8,27.1-23,27.1s-25.4-20.6-28.9-39c-3.6-18.4-4.5-69.9-4.5-69.9H721.1z"/>
		<path class="st47" d="M674.4,976.5c0.3,2.2-5.8,64.4-2.4,64.4c5.3,0,10.8,0,10.8,0s-6.4-57.3-4.2-64.4
			C680.9,969.4,674.4,976.5,674.4,976.5z"/>
		<path class="st48" d="M735.4,1022c-7.1-4.9-10.4-4.6-21.1-2.7s-18.8,7.9-24.5,11.4c-5.6,3.6-2.7-20.6-3.3-40.8
			c-0.6-20-3.9-32.6-3.9-32.6l-2.5-7c0,0-8.5,4.9-6.7,19.6c1.8,14.8,5.9,55.8,5.3,73.3c-0.6,17.7,25.4,26.4,47.8,27
			c22.4,0.6,21.4-5.8,20.2-17.4C745.7,1042.1,742.5,1026.9,735.4,1022z"/>
		<path class="st17" d="M806.9,563.7L806.9,563.7c-15,2.2-28.9-8-31.2-22.8l-27.4-179c-2.2-15-3.6-35,12-33.2
			c33.5,3.7,39,18.4,43.8,40.2l25.7,163.6C832.1,547.4,821.7,561.3,806.9,563.7z"/>
		<path class="st3" d="M929.1,483L929.1,483c-3,2.8-7.7,2.8-10.7-0.3l-23.9-24.9c-2.8-3-2.8-7.7,0.3-10.7l0,0
			c3-2.8,7.7-2.8,10.7,0.3l23.9,24.9C932.2,475.4,932.1,480.2,929.1,483z"/>
		<g>
			<path class="st49" d="M726.8,479.3l15.6,1.8c10.1-0.6,16.3-16.9,15.3-39.6l-3-45.7c-0.1-16.2-9.6-29.4-22.4-30.9l-0.7-0.1
				c-12.8-1.5-24.9,9.2-28.8,25.1l-13.9,46.3c-8.5,23.4,0.9,38.9,8.3,39.6l13.1,1.5"/>
			<path class="st50" d="M756.4,423.8l-1.8-27.6c-1.6-17.4-9.6-29.1-22.4-30.6l-0.7-0.1c-12.8-1.5-23,9.5-28.6,24.8l-8,26.6"/>
			<path d="M707,471.7l-4.2-0.4c-3-0.3-5.6,1.8-5.9,4.7l-0.1,0.7c-0.3,3,1.8,5.6,4.7,5.9l4.2,0.4c3,0.3,5.6-1.8,5.9-4.7l0.1-0.7
				C712.1,474.8,710,472.1,707,471.7z"/>
			<path d="M734.5,474.8l-4.2-0.4c-3-0.3-5.6,1.8-5.9,4.7l-0.1,0.7c-0.3,3,1.8,5.6,4.7,5.9l4.2,0.4c3,0.3,5.6-1.8,5.9-4.7l0.1-0.7
				C739.7,477.9,737.4,475.3,734.5,474.8z"/>
			<path class="st51" d="M704.9,321.3L704.9,321.3c11.3-1.8,23,15.6,25.8,31.7l0.6,4.3l1.2,8.2"/>
			<path class="st51" d="M633.2,324.5L633.2,324.5c-11.4-3-36,18.8-33.5,61.1c1.9,32.9,9.3,53.8,9.3,53.8"/>
			
				<ellipse transform="matrix(0.2499 -0.9683 0.9683 0.2499 27.7646 928.1298)" class="st19" cx="612.9" cy="446.1" rx="19.1" ry="19.1"/>
			<ellipse transform="matrix(0.2499 -0.9683 0.9683 0.2499 27.7646 928.1298)" cx="612.9" cy="446.1" rx="12" ry="12"/>
			
				<ellipse transform="matrix(0.2499 -0.9683 0.9683 0.2499 27.7646 928.1298)" class="st18" cx="612.9" cy="446.1" rx="7.6" ry="7.6"/>
		</g>
		<path class="st17" d="M822.6,772.7l-10.5-92h-0.1c-1.3-20.8-12.3-45.2-50.9-45.2c-13.4,0-22.3,0.7-22.3,0.7H528.9
			c0,0-6.5,106.1,79.1,106.1c20,0.7,27,30.4,27,30.4H822.6z"/>
		<path class="st17" d="M780,544.8L780,544.8c-5.2-14.2,1.9-30,16.2-35.2l79.5-34.7l19,51.3L815.2,561
			C800.9,566.3,785.2,559.1,780,544.8z"/>
		<polygon class="st46" points="724.8,777.1 727.8,712.9 756.4,777.1 		"/>
		<polygon class="st46" points="824.1,812 636.6,812 634.8,774 822.6,774 		"/>
	</g>
	<path class="st52" d="M846.5,572.7l-133.1-3.1c-7.3,0.3-11.9-7.9-7.9-14.1l98.9-150.1c1.6-2.5,4.3-4,7.3-4l136.9,3
		c7.3-0.3,11.9,7.9,7.9,14.1l-96.9,146.9C856.8,569.8,851.8,572.4,846.5,572.7z"/>
	<path class="st53" d="M1297.1,646H74.8c-5.9,0-10.8-4.9-10.8-10.8v-30.7c0-5.9,4.9-10.8,10.8-10.8h1222.3c5.9,0,10.8,4.9,10.8,10.8
		v30.7C1307.8,641.1,1303.1,646,1297.1,646z"/>
	<path class="st53" d="M267.3,639.2H162.6h-35.2v430.2c0,4,0.1,5.9,4.2,5.9h23.1c4,0,9.6-1.9,9.6-5.9V747.5h99.4v321.9
		c0,4,6.8,5.9,10.8,5.9h23.1c4,0,7.6-1.9,7.6-5.9V639.2H267.3z"/>
	<rect x="124.3" y="645.6" class="st54" width="180.8" height="24.8"/>
	<path class="st54" d="M1184.8,639.2h-105.5h-36.6v430.2c0,4,2.4,5.9,6.4,5.9h23.1c4,0,12-1.9,12-5.9V747.5h102.4v321.9
		c0,4,1.5,5.9,5.6,5.9h23.1c4,0,9.8-1.9,9.8-5.9V639.2H1184.8z"/>
	<rect x="1041.8" y="645.6" class="st55" width="180.8" height="24.8"/>
	<g>
		<path class="st3" d="M897.3,528.2l-12-1.8c-5.2-0.7-8.8-5.6-8-10.8l21.4-38.7c0.7-5.2,5.6-8.8,10.8-8l12,1.8
			c5.5,0.7,9.3,5.9,8.5,11.4l-21.2,37.5C905.9,525.4,902.8,529,897.3,528.2z"/>
		<path class="st3" d="M921.4,478.2L921.4,478.2c-0.6,4.2-4.5,7-8.5,6.4l-34.1-5c-4.2-0.6-7-4.5-6.4-8.5l0,0c0.6-4.2,4.5-7,8.5-6.4
			l34.1,5C919.2,470.4,922,474.2,921.4,478.2z"/>
		<path class="st3" d="M912.5,492.2L912.5,492.2c-0.6,4.2-4.5,7-8.5,6.4l-34.1-5c-4.2-0.6-7-4.5-6.4-8.5l0,0c0.6-4.2,4.5-7,8.5-6.4
			l34.1,5C910.3,484.2,913.1,488,912.5,492.2z"/>
		<path class="st3" d="M914,507.6L914,507.6c-0.6,4.2-4.5,7-8.5,6.4l-34.1-5c-4.2-0.6-7-4.5-6.4-8.5l0,0c0.6-4.2,4.5-7,8.5-6.4
			l34.1,5C911.7,499.6,914.7,503.4,914,507.6z"/>
		<path class="st3" d="M906.4,521.8L906.4,521.8c-0.6,4.2-4.5,7-8.5,6.4l-23.3-3.6c-4.2-0.6-7-4.5-6.4-8.5l0,0
			c0.6-4.2,4.5-7,8.5-6.4l23.3,3.6C904.2,513.8,907,517.7,906.4,521.8z"/>
	</g>
	<path class="st17" d="M440.9,541.6L440.9,541.6c-13.4-7.3-18.2-23.9-11-37.1l86.3-159.2c7.3-13.4,23.9-18.2,37.1-11l0,0
		c13.4,7.3,18.2,23.9,11,37.1L478,530.6C470.9,543.8,454.3,548.8,440.9,541.6z"/>
	<g>
		<path class="st9" d="M687.7,494.5c0,0,13.4-3.3,18.1,4.6c4.9,7.9-5.8,12.8-5.8,12.8L687.7,494.5z"/>
		<g>
			<path class="st16" d="M715.2,522c0,0-13.2-13.2-22.7-17.8c-9.5-4.6-15.4,8.3-6.4,12.8c8.9,4.5,27.9,7.4,27.9,7.4
				C715.9,524.8,716.7,523.2,715.2,522z"/>
			<path class="st0" d="M586.4,459.1L586.4,459.1c0.9-1.8,0.1-3.9-1.6-4.7l-10.4-5.2c-1.8-0.9-3.9-0.1-4.7,1.6l0,0
				c-0.9,1.8-0.1,3.9,1.6,4.7l10.4,5.2C583.5,461.5,585.5,460.7,586.4,459.1z"/>
			
				<rect x="626.8" y="421" transform="matrix(0.4471 -0.8945 0.8945 0.4471 -81.3715 834.0604)" class="st16" width="14.4" height="123.7"/>
			<polyline class="st56" points="591.9,453.7 583.5,470.7 628,492.9 			"/>
			<path class="st16" d="M713.8,520.7c0.9,0.7,1.3,1.3,1.3,1.3c1.6,1.2,0.7,2.8-1.2,2.4c0,0-0.7-0.1-1.8-0.3L713.8,520.7z"/>
		</g>
		<path class="st3" d="M638,486.7c0,0,18.5-7.7,30.7,0c12,7.6,18.2,11.7,18.2,11.7l-2.1,7.9l0,0c2.5,2.1,2.8,5.8,0.7,8.3l-0.1,0.1
			c-2.1,2.5-5.8,2.8-8.3,0.6l-0.1-0.1l0,0c1,3.3-0.3,6.8-3.3,8.5l-0.9,0.4c-2.8,1.6-6.2,0.9-8.3-1.6l0,0l0,0
			c1.5,1.3,2.7,7.7-4.6,9.2c-3.4,0.6-7.4,1.6-14.4,1.6l0,0l-16.5-2.2L638,486.7z"/>
		<path class="st3" d="M607.6,502c10.1-3.9,23.9-17.9,26.7-21.8c2.7-3.9,8.8-3.6,16.6-3.6c8.8,0,15.4-0.4,20.5,2.1
			c7.3,3.6,26.1,22,28.6,24.3c5.9,5.5-2.7,12.9-10.5,8.3c-6.8-4-23.4-19.6-23.4-19.6l-15.7-0.1c0,0-11.6,14.1-7.7,19.3
			c3.7,5.2,5.3,4.6,5.3,4.6l5,13.2c0,0-17.1,7.7-27.7,8.6c-12.6,1-35,8.6-35,8.6v-33.7C590.3,512.2,599.9,504.9,607.6,502z"/>
	</g>
	<path class="st17" d="M429.5,515.8L429.5,515.8c0.9-15.1,13.9-26.6,28.9-25.7l153.7,9.3l-3.3,54.6l-153.7-9.3
		C440,543.8,428.6,530.9,429.5,515.8z"/>
	<circle class="st57" cx="572" cy="247.1" r="47.9"/>
	<path class="st57" d="M529.9,140.5c-4.5,41.2,9.8,84,57.1,120.3c54,41.4,133.4,1.5,165.3-29.4c31.9-30.9,65.4-117.5,24.5-179.5
		l-220.9,5C556,56.9,535.8,86.5,529.9,140.5z"/>
	<path class="st3" d="M705.4,318.5c0,19.9-16.2,36.2-35.9,36.2l0,0h-0.3c-19.9,0-36.3-16.5-36.3-36.2V282h72.7v36.5H705.4z"/>
	<path class="st9" d="M632.7,310.6c12.5,6.4,24.6,12.2,35.5,12.2c11.3,0,24.3-2.1,37.2-8.6v-23.7h-72.7V310.6z"/>
	<path class="st3" d="M671.7,308.5c-41.5,0-94.9-59.3-94.9-99.4V73h200.4v136.2C777.2,251.3,741,308.5,671.7,308.5z"/>
	<circle class="st3" cx="572.8" cy="190.7" r="26.3"/>
	<path class="st10" d="M567.4,194.5c0-5.2,4.2-9.3,9.3-9.3c1.5,0,2.8,0.3,4,0.9c-1.6-2.7-4.6-4.6-8-4.6c-5.2,0-9.3,4.2-9.3,9.3
		c0,3.7,2.2,7,5.3,8.5C567.9,197.9,567.4,196.2,567.4,194.5z"/>
	<path class="st57" d="M736.5,97.1c0,0-44.9,26.3-82,34c-39.6,8.3-75.2,1.8-75.2,1.8s-52.4-32-19.1-81.6
		C611-24.6,736.5,2.6,768.3,39.1C801.5,77.6,781.3,140,781.3,140s-8-0.7-20.6-15C745.3,107.8,736.5,97.1,736.5,97.1z"/>
	<path class="st58" d="M671.7,199.2h-45.2c-6.8,0-12.3-5.5-12.3-12.3v-20c0-6.8,5.5-12.3,12.3-12.3h45.2c6.8,0,12.3,5.5,12.3,12.3
		v20C684.2,193.7,678.5,199.2,671.7,199.2z"/>
	<path class="st58" d="M763.2,199.2h-45.4c-6.8,0-12.3-5.5-12.3-12.3v-20c0-6.8,5.5-12.3,12.3-12.3h45.2c6.8,0,12.3,5.5,12.3,12.3
		v20C775.6,193.7,770.1,199.2,763.2,199.2z"/>
	<path class="st58" d="M684.2,176.8c0,0.6,4.5-4.7,11.1-4.7s10.4,5,10.4,5"/>
	<line class="st59" x1="572.8" y1="164.5" x2="614" y2="177.1"/>
	<path class="st15" d="M675.1,242.8c0,13.4,10.8,22.7,24.2,22.7l0,0c13.4,0,24.2-9.3,24.2-22.7"/>
	<path class="st10" d="M693.4,223.2c0,0.9,1,1.6,2.1,1.6h11.7c3.3,0,4.9-3.7,3-6.2l-13.6-16.3c-1-1.2-3.1-0.4-3.1,1"/>
	<ellipse class="st16" cx="656.1" cy="177.1" rx="7" ry="12.3"/>
	<ellipse class="st16" cx="744.1" cy="177.1" rx="7" ry="12.3"/>
</g>
</svg>
