<?xml version="1.0" encoding="utf-8"?>
<!-- Generator: Adobe Illustrator 27.0.0, SVG Export Plug-In . SVG Version: 6.00 Build 0)  -->
<svg version="1.1" id="Layer_1" xmlns="http://www.w3.org/2000/svg" xmlns:xlink="http://www.w3.org/1999/xlink" x="0px" y="0px"
	 viewBox="0 0 1920 1080" style="enable-background:new 0 0 1920 1080;" xml:space="preserve">
<style type="text/css">
	.st0{fill:#233F6B;}
	.st1{fill:#223E6A;}
</style>
<g>
	<path class="st0" d="M554.81,514.73c-1.5,0-2.7,0-4,0c-13.5,0-27,0-40.5,0c-1.1,0-2.4,0-3.3,0.5c-5.4,3.2-7.3,10.6-4.3,16.1
		c0.9,1.7,2,3.4,3.2,4.9c20.1,24.3,40.2,48.5,60.4,72.7c1.7,2,4.2,3.8,6.6,4.6c6,2.2,10.6-0.6,14.5-5.2c19.9-23.9,39.8-47.9,60-71.6
		c5.4-6.3,4.4-13.5,1-19.1c-1.3-2.1-2.8-2.9-5.3-2.9c-12.9,0.1-25.9,0.1-38.8,0c-2.7,0-5.4-0.4-8.2-0.6c-0.3-1.5-0.6-2.6-0.8-3.7
		c-9-47-29.1-88.5-60.6-124.6c-10.5-12-22.1-23-34.7-32.7c-57.5-43.9-122.3-61.4-194-52.1c-36.5,4.7-70.3,17.6-101.4,37.2
		c-34.9,22-63.2,50.3-84,86c-4.4,7.6-1.9,15,6.1,18.5c3.8,1.6,7.6,3.1,11.5,4.6c8.4,3.4,13.4,1.8,18.2-5.8
		c20.4-32.4,47.2-58.1,80.8-76.3c42.5-23,87.8-31.1,135.7-24.3c28.8,4.1,55.7,13.5,80.5,28.5c42.3,25.6,72.8,61.5,91,107.5
		C549.31,488.93,552.81,501.43,554.81,514.73z M133.01,620.13c1.6-0.1,2.5-0.2,3.4-0.2c14.2,0,28.4-0.3,42.6,0.1
		c5.2,0.2,8-1.9,10-6.1c0.3-0.7,1-1.4,1.1-2.1c0.3-1.6,0.9-3.6,0.2-4.8c-2.3-4.2-4.9-8.3-7.8-12.1c-4.5-5.9-9.3-11.4-14-17.1
		c-5.5-6.7-11.2-13.3-16.6-20c-4.2-5.1-8.2-10.5-12.5-15.6c-4.5-5.5-9.2-10.8-13.9-16.2c-4.5-5.2-12.2-8.1-18.5-2.2
		c-2.1,1.9-3.9,4.1-5.8,6.3c-5.4,6.3-10.8,12.7-16.2,19.1c-4.8,5.7-9.6,11.5-14.4,17.3c-4,4.8-8,9.7-12.1,14.4
		c-4.4,5.2-8.7,10.4-13.3,15.4c-6,6.5-6.9,12.7-2.5,20.5c1.2,2.1,2.7,3.1,5.4,3.1c13.7-0.1,27.5,0,41.2-0.1c2.4,0,3.3,0.8,4,3
		c2,6.8,4.1,13.7,6.6,20.4c22.4,61.1,62.4,107.1,119,139c34.3,19.3,71.5,28.1,110.1,31.5c21.9,1.9,43.9-0.8,65.5-5.4
		c67.2-14.5,119.8-50.7,159.5-106.2c4.3-6,2.3-12.7-4.4-15.6c-5.1-2.2-10.4-4.2-15.6-6.3c-7.5-3.1-11.4-2-16.1,4.4
		c-20.9,28.6-47.3,50.9-79.2,66.5c-43.9,21.5-90.1,28.6-137.9,18.6c-72.8-15.2-126.1-56.3-157.5-124.4
		C139.61,637.13,136.61,628.73,133.01,620.13z M344.51,464.23c-3.2-2.4-6.2-4.7-9.2-7c-11.9-9-25-15.6-40.2-15.8
		c-31.5-0.5-56.1,12.8-73.6,38.9c-6.7,10-11.2,21.3-12.7,33.3c-1.1,8.6,7,15.4,15.5,13.8c7.6-1.4,10-7.1,11.6-13.4
		c5.1-20.2,16.9-34.4,36.4-42.2c15.6-6.2,30.3-5.6,44,5c4.8,3.8,9.6,7.5,14.4,11.3c1.2,0.9,2.3,1.9,3.5,2.8c8.1,6.2,14.4,6,21.8-1
		c14.4-13.6,31.5-20.1,51.3-18.8c9.1,0.6,17.4,3.6,24.4,9.4c12.5,10.4,20.9,23.4,22.6,39.9c1.2,11.9,0.9,23.7-6.5,34.1
		c-1.9,2.6-3.3,5.6-4.9,8.3c-2,3.3-3.7,7.1-6.3,9.9c-6.6,6.8-13.7,13.1-20.4,19.7c-19.9,19.3-39.7,38.6-59.6,57.8
		c-3.9,3.8-8,7.6-12,11.4c-14.1-13.6-27.9-27-41.8-40.4c-10.1-9.7-20.6-19-30.3-29.1c-4.9-5.1-13.2-6.7-19.2-1.8
		c-5.4,4.5-6.1,12.6-1.2,18.6c2.2,2.8,5,5.1,7.5,7.6c24.5,23.8,49.1,47.5,73.6,71.2c8.1,7.9,14.9,7.9,23.1-0.1
		c5.2-5.1,10.5-10.1,15.7-15.1c28.2-27.3,56.3-54.6,84.4-82c11-10.7,18-23.7,22.1-38.5c2.7-9.8,1.2-19.7,1.8-29.6
		c0.7-10.4-2.1-20.1-6.2-29.4c-15.9-36.5-52.6-55.5-90.6-47C369.31,449.23,356.71,455.63,344.51,464.23z M333.41,553.53
		c-1.6,0-2.7,0-3.9,0c-8.2,0-16.4,0-24.6,0c-7.3,0-12.4,4.8-12.3,11.3c0.1,6.4,5.1,10.9,12.2,10.9c8.2,0,16.4,0,24.6,0
		c1.2,0,2.4,0.1,3.9,0.2c0,9.7,0,19,0,28.4c0,7.2,4.4,12.1,10.9,12.1c6.4,0,10.9-4.9,11-12.1c0.1-6,0-12,0-18c0-3.4,0-6.9,0-10.3
		c1.2-0.1,1.8-0.2,2.5-0.2c9,0,18,0.1,27,0c5.9-0.1,10.5-4.3,11-9.9c0.5-5.9-3-10.6-8.8-11.8c-1.7-0.3-3.4-0.4-5.1-0.4
		c-8.7,0-17.5,0-26.6,0c0-1.6,0-2.8,0-4.1c0-8.3,0.1-16.6,0-24.9c-0.1-6.9-4.5-11.4-10.8-11.4c-6.3-0.1-10.9,4.4-11,10.8
		C333.41,533.53,333.41,543.23,333.41,553.53z"/>
	<path class="st0" d="M554.81,514.73c-2.1-13.3-5.6-25.8-10.4-37.9c-18.3-46-48.7-81.9-91-107.5c-24.8-15-51.7-24.4-80.5-28.5
		c-47.9-6.8-93.2,1.4-135.7,24.3c-33.7,18.2-60.5,43.9-80.8,76.3c-4.7,7.5-9.8,9.2-18.2,5.8c-3.8-1.5-7.7-3-11.5-4.6
		c-8-3.5-10.5-10.9-6.1-18.5c20.8-35.7,49.2-64.1,84-86c31.1-19.6,64.9-32.5,101.4-37.2c71.7-9.3,136.5,8.2,194,52.1
		c12.7,9.7,24.2,20.7,34.7,32.7c31.5,36,51.7,77.6,60.6,124.6c0.2,1.1,0.5,2.2,0.8,3.7c2.7,0.2,5.4,0.6,8.2,0.6
		c12.9,0.1,25.9,0.1,38.8,0c2.5,0,4.1,0.9,5.3,2.9c3.4,5.6,4.4,12.7-1,19.1c-20.2,23.7-40.1,47.7-60,71.6c-3.9,4.6-8.4,7.4-14.5,5.2
		c-2.5-0.9-5-2.6-6.6-4.6c-20.2-24.1-40.3-48.4-60.4-72.7c-1.2-1.5-2.3-3.2-3.2-4.9c-3-5.5-1.1-12.9,4.3-16.1
		c0.9-0.5,2.2-0.5,3.3-0.5c13.5,0,27,0,40.5,0C552.11,514.73,553.31,514.73,554.81,514.73z"/>
	<path class="st0" d="M133.01,620.13c3.5,8.6,6.6,17.1,10.3,25.2c31.4,68.1,84.6,109.3,157.5,124.4c47.7,10,94,2.9,137.9-18.6
		c31.9-15.6,58.2-37.8,79.2-66.5c4.7-6.4,8.6-7.5,16.1-4.4c5.2,2.1,10.5,4.1,15.6,6.3c6.8,2.9,8.7,9.6,4.4,15.6
		c-39.8,55.5-92.4,91.8-159.5,106.2c-21.6,4.7-43.6,7.4-65.5,5.4c-38.5-3.4-75.8-12.2-110.1-31.5c-56.6-31.9-96.6-77.9-119-139
		c-2.5-6.7-4.5-13.5-6.6-20.4c-0.7-2.2-1.6-3.1-4-3c-13.7,0.1-27.5,0-41.2,0.1c-2.6,0-4.2-1-5.4-3.1c-4.4-7.8-3.5-14.1,2.5-20.5
		c4.6-5,8.9-10.2,13.3-15.4c4.1-4.8,8.1-9.6,12.1-14.4c4.8-5.8,9.6-11.6,14.4-17.3c5.4-6.4,10.8-12.8,16.2-19.1
		c1.9-2.2,3.7-4.4,5.8-6.3c6.3-5.8,14-3,18.5,2.2c4.7,5.4,9.4,10.7,13.9,16.2c4.3,5.1,8.2,10.4,12.5,15.6c5.5,6.7,11.1,13.3,16.6,20
		c4.7,5.7,9.5,11.3,14,17.1c2.9,3.8,5.5,7.9,7.8,12.1c0.7,1.2,0,3.2-0.2,4.8c-0.1,0.7-0.8,1.4-1.1,2.1c-2,4.2-4.8,6.3-10,6.1
		c-14.2-0.4-28.4-0.1-42.6-0.1C135.51,619.93,134.61,620.03,133.01,620.13z"/>
	<path class="st0" d="M344.51,464.23c12.1-8.6,24.8-14.9,39-18.1c38-8.5,74.8,10.5,90.6,47c4.1,9.4,6.9,19,6.2,29.4
		c-0.7,9.9,0.9,19.8-1.8,29.6c-4.1,14.8-11.1,27.8-22.1,38.5c-28.1,27.4-56.3,54.7-84.4,82c-5.2,5.1-10.5,10.1-15.7,15.1
		c-8.2,8-14.9,8-23.1,0.1c-24.5-23.7-49.1-47.5-73.6-71.2c-2.6-2.5-5.3-4.8-7.5-7.6c-4.9-6-4.2-14.1,1.2-18.6
		c6-4.9,14.3-3.3,19.2,1.8c9.7,10.1,20.2,19.4,30.3,29.1c13.9,13.4,27.7,26.8,41.8,40.4c4.1-3.8,8.1-7.6,12-11.4
		c19.9-19.3,39.7-38.6,59.6-57.8c6.8-6.6,13.9-12.8,20.4-19.7c2.6-2.8,4.3-6.5,6.3-9.9c1.7-2.8,3.1-5.7,4.9-8.3
		c7.4-10.4,7.7-22.3,6.5-34.1c-1.7-16.4-10-29.5-22.6-39.9c-7.1-5.8-15.4-8.8-24.4-9.4c-19.9-1.4-36.9,5.2-51.3,18.8
		c-7.4,7-13.7,7.2-21.8,1c-1.2-0.9-2.3-1.9-3.5-2.8c-4.8-3.8-9.6-7.5-14.4-11.3c-13.6-10.7-28.4-11.3-44-5
		c-19.5,7.8-31.3,22.1-36.4,42.2c-1.6,6.3-4,12-11.6,13.4c-8.5,1.6-16.6-5.3-15.5-13.8c1.6-12.1,6-23.3,12.7-33.3
		c17.5-26.1,42.1-39.4,73.6-38.9c15.2,0.2,28.3,6.8,40.2,15.8C338.41,459.43,341.41,461.83,344.51,464.23z"/>
	<path class="st0" d="M333.41,553.53c0-10.2-0.1-19.9,0-29.6c0.1-6.4,4.8-10.9,11-10.8c6.3,0.1,10.7,4.6,10.8,11.4
		c0.1,8.3,0,16.6,0,24.9c0,1.2,0,2.5,0,4.1c9.1,0,17.9,0,26.6,0c1.7,0,3.5,0,5.1,0.4c5.8,1.2,9.3,6,8.8,11.8
		c-0.5,5.6-5.1,9.8-11,9.9c-9,0.1-18,0-27,0c-0.7,0-1.4,0.1-2.5,0.2c0,3.5,0,6.9,0,10.3c0,6,0.1,12,0,18c-0.1,7.2-4.5,12.1-11,12.1
		s-10.9-4.8-10.9-12.1c0-9.3,0-18.7,0-28.4c-1.5-0.1-2.7-0.2-3.9-0.2c-8.2,0-16.4,0-24.6,0c-7.1,0-12.1-4.5-12.2-10.9
		c-0.1-6.5,5-11.2,12.3-11.3c8.2-0.1,16.4,0,24.6,0C330.71,553.53,331.81,553.53,333.41,553.53z"/>
</g>
<g>
	<g>
		<path class="st1" d="M825.56,612.06h-32.27v-65.9h-60.47v65.9h-32.38V459.38h32.38v59.84h60.47v-59.84h32.27V612.06z"/>
		<path class="st1" d="M909.73,493.11c10.79,0,20.09,2.07,27.88,6.21c7.8,4.14,13.82,10.15,18.07,18.01
			c4.25,7.87,6.37,17.48,6.37,28.82v15.46h-75.3c0.35,8.98,3.04,16.03,8.09,21.15c5.05,5.12,12.06,7.68,21.04,7.68
			c7.45,0,14.27-0.76,20.47-2.3c6.2-1.53,12.57-3.83,19.11-6.89v24.65c-5.78,2.86-11.82,4.94-18.12,6.27
			c-6.3,1.32-13.94,1.98-22.92,1.98c-11.7,0-22.05-2.16-31.07-6.48c-9.02-4.32-16.08-10.89-21.2-19.74
			c-5.12-8.84-7.68-19.98-7.68-33.42c0-13.65,2.31-25.01,6.94-34.1c4.63-9.09,11.09-15.91,19.37-20.47
			C889.09,495.39,898.73,493.11,909.73,493.11z M909.94,515.77c-6.2,0-11.33,1.98-15.4,5.95c-4.07,3.97-6.42,10.2-7.05,18.69h44.7
			c-0.07-4.73-0.92-8.95-2.56-12.64c-1.64-3.69-4.07-6.61-7.31-8.77C919.08,516.85,914.96,515.77,909.94,515.77z"/>
		<path class="st1" d="M1035.79,492.9c15.67,0,27.68,3.41,36.03,10.23c8.35,6.82,12.53,17.2,12.53,31.12v77.8h-22.24l-6.16-15.87
			h-0.84c-3.34,4.18-6.75,7.59-10.23,10.23c-3.48,2.65-7.48,4.6-12.01,5.85s-10.03,1.88-16.5,1.88c-6.89,0-13.07-1.32-18.54-3.97
			c-5.47-2.65-9.76-6.7-12.9-12.17c-3.13-5.46-4.7-12.41-4.7-20.83c0-12.39,4.35-21.53,13.05-27.41c8.7-5.88,21.76-9.14,39.16-9.76
			l20.26-0.63v-5.12c0-6.13-1.6-10.62-4.8-13.47c-3.2-2.85-7.66-4.28-13.37-4.28c-5.64,0-11.18,0.8-16.61,2.4
			c-5.43,1.6-10.86,3.62-16.29,6.06l-10.55-21.51c6.2-3.27,13.14-5.85,20.83-7.73S1027.57,492.9,1035.79,492.9z M1052.71,557.96
			l-12.32,0.42c-10.3,0.28-17.46,2.12-21.46,5.54c-4,3.41-6.01,7.9-6.01,13.47c0,4.87,1.43,8.34,4.28,10.39
			c2.85,2.05,6.58,3.08,11.17,3.08c6.82,0,12.58-2.02,17.28-6.06c4.7-4.04,7.05-9.78,7.05-17.23V557.96z"/>
		<path class="st1" d="M1148.99,612.06h-31.85v-162.5h31.85V612.06z"/>
		<path class="st1" d="M1231.6,588.77c3.48,0,6.87-0.35,10.18-1.04c3.31-0.7,6.6-1.57,9.87-2.61v23.71
			c-3.41,1.53-7.64,2.8-12.69,3.81c-5.05,1.01-10.57,1.51-16.55,1.51c-6.96,0-13.21-1.13-18.75-3.39s-9.89-6.2-13.05-11.8
			c-3.17-5.6-4.75-13.42-4.75-23.45v-56.29h-15.25v-13.47l17.54-10.65l9.19-24.65h20.37v24.86h32.69v23.92h-32.69v56.29
			c0,4.46,1.27,7.78,3.81,9.97C1224.06,587.67,1227.42,588.77,1231.6,588.77z"/>
		<path class="st1" d="M1307.11,449.56v33.11c0,5.78-0.19,11.28-0.57,16.5c-0.38,5.22-0.68,8.91-0.89,11.07h1.67
			c2.51-4.04,5.48-7.31,8.93-9.82c3.45-2.51,7.26-4.35,11.44-5.54c4.18-1.18,8.67-1.78,13.47-1.78c8.42,0,15.77,1.48,22.04,4.44
			c6.27,2.96,11.14,7.59,14.62,13.89c3.48,6.3,5.22,14.46,5.22,24.49v76.13h-31.85v-68.2c0-8.35-1.53-14.66-4.6-18.9
			c-3.06-4.25-7.8-6.37-14.2-6.37c-6.41,0-11.45,1.48-15.14,4.44c-3.69,2.96-6.3,7.31-7.83,13.05c-1.53,5.74-2.3,12.76-2.3,21.04
			v54.93h-31.85v-162.5H1307.11z"/>
		<path d="M1508.46,569.66c0,9.05-2.19,16.92-6.58,23.6c-4.39,6.68-10.78,11.84-19.16,15.46c-8.39,3.62-18.57,5.43-30.55,5.43
			c-5.29,0-10.46-0.35-15.51-1.04c-5.05-0.7-9.89-1.72-14.52-3.08c-4.63-1.36-9.03-3.04-13.21-5.07v-30.08
			c7.24,3.2,14.76,6.09,22.56,8.67c7.8,2.58,15.52,3.86,23.18,3.86c5.29,0,9.56-0.7,12.79-2.09c3.24-1.39,5.59-3.31,7.05-5.74
			c1.46-2.44,2.19-5.22,2.19-8.35c0-3.83-1.29-7.1-3.86-9.82c-2.58-2.72-6.11-5.26-10.6-7.62c-4.49-2.37-9.56-4.91-15.2-7.62
			c-3.55-1.67-7.42-3.71-11.59-6.11c-4.18-2.4-8.15-5.34-11.91-8.82c-3.76-3.48-6.84-7.71-9.24-12.69c-2.4-4.98-3.6-10.95-3.6-17.91
			c0-9.12,2.09-16.92,6.27-23.39c4.18-6.48,10.15-11.44,17.91-14.88c7.76-3.45,16.93-5.17,27.52-5.17c7.94,0,15.51,0.92,22.71,2.77
			c7.21,1.85,14.74,4.51,22.61,7.99l-10.44,25.17c-7.03-2.85-13.33-5.06-18.9-6.63c-5.57-1.57-11.24-2.35-17.02-2.35
			c-4.04,0-7.49,0.64-10.34,1.93c-2.86,1.29-5.01,3.1-6.48,5.43c-1.46,2.33-2.19,5.03-2.19,8.09c0,3.62,1.06,6.67,3.18,9.14
			c2.12,2.47,5.33,4.86,9.61,7.15c4.28,2.3,9.62,4.98,16.03,8.04c7.8,3.69,14.46,7.54,20,11.54c5.54,4,9.8,8.7,12.79,14.1
			C1506.96,554.95,1508.46,561.66,1508.46,569.66z"/>
		<path d="M1516.92,495.3h34.88l22.04,65.69c0.7,2.09,1.29,4.21,1.78,6.37c0.49,2.16,0.9,4.39,1.25,6.68
			c0.35,2.3,0.63,4.7,0.84,7.21h0.63c0.42-3.76,0.99-7.27,1.72-10.55c0.73-3.27,1.65-6.51,2.77-9.71l21.62-65.69h34.15L1589.18,627
			c-2.99,8.08-6.89,14.81-11.7,20.21c-4.8,5.39-10.32,9.45-16.55,12.17c-6.23,2.72-13.07,4.07-20.52,4.07
			c-3.62,0-6.75-0.19-9.4-0.57c-2.65-0.38-4.91-0.78-6.79-1.2v-25.27c1.46,0.35,3.31,0.66,5.54,0.94c2.23,0.28,4.56,0.42,7,0.42
			c4.45,0,8.28-0.94,11.49-2.82c3.2-1.88,5.88-4.4,8.04-7.57c2.16-3.17,3.86-6.63,5.12-10.39l1.88-5.74L1516.92,495.3z"/>
		<path d="M1721.61,493.11c12.46,0,22.49,3.39,30.08,10.18c7.59,6.79,11.38,17.67,11.38,32.64v76.13h-31.85v-68.2
			c0-8.35-1.51-14.66-4.54-18.9c-3.03-4.25-7.78-6.37-14.26-6.37c-9.75,0-16.4,3.31-19.95,9.92c-3.55,6.62-5.33,16.15-5.33,28.61
			v54.93h-31.85V495.3h24.33l4.28,14.93h1.78c2.51-4.04,5.62-7.31,9.35-9.82c3.72-2.51,7.87-4.35,12.43-5.54
			C1712.02,493.7,1716.73,493.11,1721.61,493.11z"/>
		<path d="M1843.27,614.15c-11.56,0-21.41-2.11-29.56-6.32c-8.15-4.21-14.34-10.74-18.59-19.58c-4.25-8.84-6.37-20.16-6.37-33.94
			c0-14.27,2.42-25.92,7.26-34.93c4.84-9.02,11.56-15.65,20.16-19.89c8.6-4.25,18.57-6.37,29.92-6.37c8.08,0,15.05,0.78,20.94,2.35
			c5.88,1.57,11.02,3.43,15.4,5.59l-9.4,24.65c-5.01-2.02-9.68-3.67-13.99-4.96c-4.32-1.29-8.63-1.93-12.95-1.93
			c-5.57,0-10.2,1.31-13.89,3.92c-3.69,2.61-6.44,6.53-8.25,11.75c-1.81,5.22-2.72,11.77-2.72,19.63c0,7.73,0.97,14.13,2.92,19.22
			c1.95,5.08,4.77,8.86,8.46,11.33c3.69,2.47,8.18,3.71,13.47,3.71c6.61,0,12.5-0.89,17.65-2.66c5.15-1.78,10.16-4.26,15.04-7.47
			v27.26c-4.88,3.06-9.97,5.27-15.3,6.63C1858.16,613.47,1851.42,614.15,1843.27,614.15z"/>
	</g>
</g>
</svg>
